<?xml version="1.0" standalone="no"?>
<!DOCTYPE svg PUBLIC "-//W3C//DTD SVG 20010904//EN"
 "http://www.w3.org/TR/2001/REC-SVG-20010904/DTD/svg10.dtd">
<svg version="1.0" xmlns="http://www.w3.org/2000/svg"
 width="1000.000000pt" height="1000.000000pt" viewBox="0 0 1000.000000 1000.000000"
 preserveAspectRatio="xMidYMid meet">
<metadata>
Created by potrace 1.14, written by Peter Selinger 2001-2017
</metadata>
<g transform="translate(0.000000,1000.000000) scale(0.100000,-0.100000)"
fill="#000000" stroke="none">
<path d="M3122 9057 c-22 -23 -22 -28 -22 -365 l0 -342 -343 0 -344 0 -21 -23
c-22 -23 -22 -28 -22 -360 l0 -337 -338 0 -339 0 -21 -23 -22 -23 0 -707 0
-707 -343 0 -344 0 -21 -23 -22 -23 0 -1125 0 -1126 23 -21 c23 -22 28 -22
365 -22 l342 0 0 -343 0 -344 23 -21 c23 -22 28 -22 360 -22 l337 0 0 -343 0
-344 23 -21 c23 -22 28 -22 365 -22 l342 0 0 -338 0 -339 23 -21 c23 -22 28
-22 365 -22 l342 0 0 -343 0 -344 23 -21 23 -22 1125 0 1126 0 21 23 c22 23
22 28 22 365 l0 342 343 0 344 0 21 23 c22 23 22 28 22 360 l0 337 343 0 344
0 21 23 c22 23 22 28 22 365 l0 342 338 0 339 0 21 23 c22 23 22 28 22 365 l0
342 343 0 344 0 21 23 22 23 0 1125 0 1126 -23 21 c-23 22 -28 22 -365 22
l-342 0 0 708 0 709 -23 21 c-23 22 -28 22 -360 22 l-337 0 0 338 0 339 -23
21 c-23 22 -28 22 -365 22 l-342 0 0 343 0 344 -23 21 c-23 22 -26 22 -423 22
l-401 0 -21 -23 c-22 -23 -22 -28 -22 -365 l0 -342 -343 0 -344 0 -21 -23 -22
-23 0 -702 0 -702 -280 0 -280 0 0 703 0 704 -23 21 c-23 22 -28 22 -365 22
l-342 0 0 343 0 344 -23 21 c-23 22 -26 22 -423 22 l-401 0 -21 -23z"/>
</g>
</svg>
