<?xml version="1.0" standalone="no"?>
<!DOCTYPE svg PUBLIC "-//W3C//DTD SVG 20010904//EN"
 "http://www.w3.org/TR/2001/REC-SVG-20010904/DTD/svg10.dtd">
<svg version="1.0" xmlns="http://www.w3.org/2000/svg"
 width="800.000000pt" height="800.000000pt" viewBox="0 0 800.000000 800.000000"
 preserveAspectRatio="xMidYMid meet">
<metadata>
Created by potrace 1.11, written by Peter Selinger 2001-2013
</metadata>
<g transform="translate(0.000000,800.000000) scale(0.100000,-0.100000)"
fill="#000000" stroke="none">
<path d="M2180 7635 l0 -365 -365 0 -365 0 0 -360 0 -360 -360 0 -360 0 0
-730 0 -730 -365 0 -365 0 0 -1090 0 -1090 365 0 365 0 0 -365 0 -365 360 0
360 0 0 -365 0 -365 365 0 365 0 0 -360 0 -360 365 0 365 0 0 -365 0 -365
1090 0 1090 0 0 365 0 365 365 0 365 0 0 360 0 360 365 0 365 0 0 365 0 365
360 0 360 0 0 365 0 365 365 0 365 0 0 1090 0 1090 -365 0 -365 0 0 730 0 730
-360 0 -360 0 0 360 0 360 -365 0 -365 0 0 365 0 365 -365 0 -365 0 0 -365 0
-365 -365 0 -365 0 0 -1090 0 -1090 -360 0 -360 0 0 1090 0 1090 -365 0 -365
0 0 365 0 365 -365 0 -365 0 0 -365z"/>
</g>
</svg>
