<svg version="1" xmlns="http://www.w3.org/2000/svg" width="1333.333" height="1333.333" viewBox="0 0 1000.000000 1000.000000"><path d="M312.2 94.3c-2.2 2.3-2.2 2.8-2.2 36.5V165H241.3l-2.1 2.3c-2.2 2.3-2.2 2.8-2.2 36V237H169.3l-2.1 2.3-2.2 2.3V383H96.3l-2.1 2.3-2.2 2.3v225.1l2.3 2.1c2.3 2.2 2.8 2.2 36.5 2.2H165V685.7l2.3 2.1c2.3 2.2 2.8 2.2 36 2.2H237V758.7l2.3 2.1c2.3 2.2 2.8 2.2 36.5 2.2H310V830.7l2.3 2.1c2.3 2.2 2.8 2.2 36.5 2.2H383V903.7l2.3 2.1 2.3 2.2h225.1l2.1-2.3c2.2-2.3 2.2-2.8 2.2-36.5V835H685.7l2.1-2.3c2.2-2.3 2.2-2.8 2.2-36V763H758.7l2.1-2.3c2.2-2.3 2.2-2.8 2.2-36.5V690H830.7l2.1-2.3c2.2-2.3 2.2-2.8 2.2-36.5V617H903.7l2.1-2.3 2.2-2.3V387.3l-2.3-2.1c-2.3-2.2-2.8-2.2-36.5-2.2H835V241.3l-2.3-2.1c-2.3-2.2-2.8-2.2-36-2.2H763V169.3l-2.3-2.1c-2.3-2.2-2.8-2.2-36.5-2.2H690V96.3l-2.3-2.1c-2.3-2.2-2.6-2.2-42.3-2.2h-40.1l-2.1 2.3c-2.2 2.3-2.2 2.8-2.2 36.5V165H532.3l-2.1 2.3-2.2 2.3V310h-56V169.3l-2.3-2.1c-2.3-2.2-2.8-2.2-36.5-2.2H399V96.3l-2.3-2.1c-2.3-2.2-2.6-2.2-42.3-2.2h-40.1l-2.1 2.3zM391 282v109h73v145h72V391h73V173h73v72h73v219h72v218h-72v73h-73v72h-73v73H391v-73h-73v-72h-73v-73h-72V464h72V245h73v-72h73v109z"/><path d="M245 500v36h73v73h73V464H245v36zM609 536.5V609h73v-73h73v-72H609v72.5zM464 645.5V682h72v-73h-72v36.5z"/></svg>